<?xml version="1.0" encoding="UTF-8"?>
<svg width="203px" height="374px" viewBox="0 0 203 374" version="1.1" xmlns="http://www.w3.org/2000/svg" xmlns:xlink="http://www.w3.org/1999/xlink">
    <!-- Generator: Sketch 50.2 (55047) - http://www.bohemiancoding.com/sketch -->
    <title>Group 3</title>
    <desc>Created with Sketch.</desc>
    <defs></defs>
    <g id="Page-1" stroke="none" stroke-width="1" fill="none" fill-rule="evenodd">
        <g id="Desktop" transform="translate(-220.000000, -38.000000)">
            <g id="Group-3" transform="translate(220.000000, 37.000000)">
                <g id="il_570xN.1078555758_s54a" fill="#000000" fill-rule="nonzero">
                    <g id="Group" transform="translate(101.500000, 187.700000) scale(-1, 1) rotate(-180.000000) translate(-101.500000, -187.700000) translate(0.000000, 0.700000)">
                        <path d="M82.2,372.5 C81.7,371.8 80.9,370.1 80.5,368.7 C80.1,367.3 78.5,363.9 76.9,361.1 C74.6,357 74,354.7 74,349.9 C74,346.1 73.4,342.8 72.3,340.9 C70.8,338.2 70.7,337.6 72.3,332.6 C73.2,329.6 74.2,323.6 74.5,319.2 L75.2,311.1 L69.8,306.1 C62.7,299.4 53.4,293.2 46.7,290.7 C43.6,289.5 39.6,287.4 37.8,285.9 C32.2,281.5 24.9,272.6 22.7,267.8 C21.6,265.3 17.6,259.8 13.9,255.7 C5.1,246.1 0.7,237.6 0.2,229.1 C-0.2,223.4 0.1,222.2 3.3,216.5 C7.2,209.5 14.4,200.7 22.3,193.3 C29.9,186.2 43.1,176.7 45.3,176.7 C47.5,176.7 47.5,176.3 43.4,151 C42.1,142.7 41,132.4 41,128.2 C41,119.6 42.3,116.4 49.6,106.4 C52.3,102.7 54,99.2 54,97.6 C54,94.3 51.2,82 50,79.7 C49.1,78.1 50.5,70.4 57,41.2 C60.5,25.1 59.7,21.5 50.8,16.1 C47.7,14.2 44.8,12.1 44.4,11.6 C43.6,10.2 45.9,7.7 48,7.7 C49.6,7.7 68.1,13.5 68.9,14.2 C69.1,14.4 68.7,17.5 68,21 C66.3,29.5 67.6,36.3 74.2,53 L79.3,65.7 L77,74 C75.8,78.5 74.2,84.2 73.4,86.6 C71.3,93.1 71.7,96.1 75.1,103 C78.5,110 83.5,126 84.5,133.3 C85.6,142 86.1,143.7 87.5,143.7 C89.3,143.7 94.9,133.7 100.3,120.5 C105.1,108.9 110,100.5 113.4,98.2 C118,94.9 125.3,87.1 127.2,83.3 C130.4,77 133,68.7 133,64.6 C133,61.7 134.5,58.6 140.2,50 C150.2,34.8 153,28.6 153,21.4 C153,17 153.5,14.9 155,13 C156.1,11.6 157,9.4 157,8.1 C157,5.5 160.8,1.2 164.1,0.2 C166.5,-0.6 171.3,2.4 171.8,5.1 C172,6 170.3,8.9 168,11.5 C165.7,14.1 162.6,18.5 161.2,21.2 C158.8,26 158.6,27.2 157.8,50.2 C156.9,78.4 156.3,82.9 153.4,83.7 C152.3,84 148.4,87.5 144.7,91.5 L138,98.9 L138,118.6 L138,138.3 L132.5,151.7 C129.5,159 127,165.3 127,165.7 C127,166 129.1,166.8 131.6,167.5 C134.1,168.2 137.8,169.6 139.8,170.6 C141.9,171.6 149.1,175.3 156,178.7 C180.5,190.9 187.2,195.4 198,207.4 C202.3,212.1 202.9,214 202.9,222.2 C203,235.8 198.5,249.7 191.3,258.5 C189.3,260.9 185.8,267.3 183.4,272.8 C181.1,278.2 177.7,284.7 176,287.1 C170.4,295.4 157.9,302.2 146.5,303.3 C131.2,304.8 116.6,316.8 114.5,329.7 C113.8,334.2 113.8,334.9 114.3,342.2 C114.5,345.6 114.1,346.3 111.9,347.4 C109.9,348.4 109.1,349.7 108.6,352.6 C108.3,354.7 107.3,357 106.5,357.7 C105.7,358.4 105,359.5 105,360.2 C105,361.9 96.8,369.7 92.7,371.9 C88.9,373.9 83.6,374.2 82.2,372.5 Z M154.9,232.8 C157.4,230.7 160.6,228.4 161.8,227.8 C164.2,226.5 164.2,226.5 158.3,220.9 C155,217.7 151,212.7 149.3,209.7 C144.2,200.9 141.1,198.4 134,197.9 C129.1,197.5 128,197.7 128,199 C128,202.1 135.3,216.3 140.9,224.1 C144.1,228.5 147.3,233.2 147.9,234.5 C148.5,235.7 149.3,236.7 149.6,236.7 C150,236.7 152.3,235 154.9,232.8 Z" id="Shape"></path>
                    </g>
                </g>
                <g id="Group-2" transform="translate(71.000000, 92.000000)">
                    <g id="React-icon" transform="translate(9.000000, 11.000000)" fill="#61DAFB" fill-rule="nonzero">
                        <path d="M28,12.5028611 C28,10.6431678 25.67713,8.88075074 22.1157766,7.7878233 C22.9376274,4.14854658 22.5723604,1.25314717 20.9629026,0.326161593 C20.5919283,0.108720531 20.1581737,0.00572213321 19.684468,0.00572213321 L19.684468,1.28175784 C19.9470037,1.28175784 20.1581737,1.33325704 20.3350999,1.4305333 C21.1112923,1.87685969 21.4480228,3.57633326 21.1854872,5.76218814 C21.1227069,6.30006867 21.0199755,6.86655985 20.894415,7.44449531 C19.7757848,7.16983291 18.5544232,6.95811398 17.2702813,6.82078279 C16.4997962,5.76218814 15.7007746,4.80086976 14.8960457,3.95971618 C16.7566245,2.22590982 18.5030575,1.27603571 19.6901753,1.27603571 L19.6901753,0 C19.6901753,0 19.6901753,0 19.6901753,0 C18.1206686,0 16.0660416,1.12153811 13.9885854,3.0670634 C11.9111292,1.13298238 9.85650224,0.0228885328 8.28699552,0.0228885328 L8.28699552,1.29892424 C9.46840603,1.29892424 11.2205463,2.24307622 13.0811252,3.96543832 C12.2821035,4.8065919 11.4830819,5.76218814 10.7240114,6.82078279 C9.43416225,6.95811398 8.21280065,7.16983291 7.0941704,7.45021744 C6.96290257,6.87800412 6.86587852,6.3229572 6.79739095,5.79079881 C6.52914798,3.60494392 6.86017122,1.90547036 7.63065634,1.45342184 C7.80187525,1.35042344 8.02445985,1.30464637 8.28699552,1.30464637 L8.28699552,0.0286106661 C8.28699552,0.0286106661 8.28699552,0.0286106661 8.28699552,0.0286106661 C7.80758255,0.0286106661 7.37382797,0.131609064 6.99714635,0.349050126 C5.39339584,1.27603571 5.03383612,4.16571298 5.86139421,7.79354543 C2.31145536,8.89219501 0,10.6488899 0,12.5028611 C0,14.3625544 2.32286996,16.1249714 5.8842234,17.2178988 C5.0623726,20.8571756 5.42763962,23.752575 7.03709743,24.6795605 C7.40807175,24.8970016 7.84182634,25 8.3212393,25 C9.89074603,25 11.945373,23.8784619 14.0228292,21.9329366 C16.1002854,23.8670176 18.1549124,24.9771115 19.7244191,24.9771115 C20.203832,24.9771115 20.6375866,24.8741131 21.0142682,24.656672 C22.6180188,23.7296864 22.9775785,20.8400092 22.1500204,17.2121767 C25.6885446,16.1192493 28,14.3568322 28,12.5028611 Z M20.5690991,8.68619821 C20.3579291,9.4243534 20.0953934,10.1853971 19.7986139,10.9464408 C19.5646148,10.4886702 19.319201,10.0308995 19.050958,9.57312886 C18.7884223,9.11535821 18.5087648,8.66903182 18.2291072,8.23414969 C19.0395434,8.35431449 19.8214431,8.50308995 20.5690991,8.68619821 Z M17.955157,14.7802701 C17.5099878,15.5527581 17.053404,16.2851911 16.5796983,16.966125 C15.729311,17.0405127 14.8675092,17.0805676 14,17.0805676 C13.1381981,17.0805676 12.2763962,17.0405127 11.4317163,16.9718471 C10.9580106,16.2909133 10.4957195,15.5642023 10.0505503,14.7974365 C9.61679576,14.047837 9.22299225,13.2867933 8.86343253,12.5200275 C9.21728496,11.7532616 9.61679576,10.9864958 10.044843,10.2368963 C10.4900122,9.46440833 10.946596,8.73197528 11.4203017,8.05104143 C12.270689,7.9766537 13.1324908,7.93659876 14,7.93659876 C14.8618019,7.93659876 15.7236038,7.9766537 16.5682837,8.0453193 C17.0419894,8.72625315 17.5042805,9.45296407 17.9494497,10.2197299 C18.3832042,10.9693294 18.7770077,11.7303731 19.1365675,12.4971389 C18.7770077,13.2639048 18.3832042,14.0306706 17.955157,14.7802701 Z M19.7986139,14.0363928 C20.106808,14.8031586 20.3693437,15.5699245 20.586221,16.3138018 C19.838565,16.49691 19.050958,16.6514076 18.2348145,16.7715724 C18.5144721,16.3309682 18.7941296,15.8789197 19.0566653,15.4154269 C19.319201,14.9576562 19.5646148,14.4941634 19.7986139,14.0363928 Z M14.0114146,20.1419089 C13.480636,19.5925841 12.9498573,18.9803159 12.424786,18.3108263 C12.9384427,18.3337148 13.4635141,18.3508812 13.9942927,18.3508812 C14.5307786,18.3508812 15.0615573,18.3394369 15.5809213,18.3108263 C15.0672646,18.9803159 14.5364859,19.5925841 14.0114146,20.1419089 Z M9.76518549,16.7715724 C8.95474929,16.6514076 8.17284957,16.5026322 7.42519364,16.3195239 C7.63636364,15.5813687 7.89889931,14.820325 8.19567876,14.0592813 C8.42967795,14.517052 8.67509172,14.9748226 8.94333469,15.4325933 C9.21157766,15.8903639 9.48552792,16.3366903 9.76518549,16.7715724 Z M13.9828781,4.86381323 C14.5136567,5.41313802 15.0444354,6.02540627 15.5695067,6.69489586 C15.05585,6.67200732 14.5307786,6.65484092 14,6.65484092 C13.4635141,6.65484092 12.9327354,6.66628519 12.4133714,6.69489586 C12.9270281,6.02540627 13.4578068,5.41313802 13.9828781,4.86381323 Z M9.75947819,8.23414969 C9.47982063,8.67475395 9.20016307,9.12680247 8.9376274,9.59029526 C8.67509172,10.0480659 8.42967795,10.5058366 8.19567876,10.9636072 C7.88748471,10.1968414 7.62494904,9.43007553 7.40807175,8.68619821 C8.15572768,8.50881209 8.94333469,8.35431449 9.75947819,8.23414969 Z M4.59437424,15.3982605 C2.57399103,14.5342184 1.26701998,13.401236 1.26701998,12.5028611 C1.26701998,11.6044862 2.57399103,10.4657816 4.59437424,9.60746166 C5.08520179,9.39574273 5.62168773,9.20691234 6.17529556,9.02952621 C6.5006115,10.1510643 6.92865879,11.3183795 7.45943742,12.5143053 C6.93436608,13.704509 6.51202609,14.8661021 6.19241745,15.9819181 C5.62739503,15.8045319 5.09090909,15.6099794 4.59437424,15.3982605 Z M7.66490012,23.5751888 C6.8887077,23.1288624 6.55197717,21.4293889 6.81451284,19.243534 C6.87729311,18.7056535 6.98002446,18.1391623 7.105585,17.5612268 C8.22421525,17.8358892 9.44557684,18.0476081 10.7297187,18.1849393 C11.5002038,19.243534 12.2992254,20.2048524 13.1039543,21.046006 C11.2433755,22.7798123 9.49694252,23.7296864 8.3098247,23.7296864 C8.05299633,23.7239643 7.83611904,23.6724651 7.66490012,23.5751888 Z M21.2026091,19.2149233 C21.470852,21.4007782 21.1398288,23.1002518 20.3693437,23.5523003 C20.1981247,23.6552987 19.9755402,23.7010758 19.7130045,23.7010758 C18.531594,23.7010758 16.7794537,22.7569238 14.9188748,21.0345617 C15.7178965,20.1934081 16.5169181,19.2378119 17.2759886,18.1792172 C18.5658377,18.041886 19.7871993,17.8301671 20.9058296,17.5497826 C21.0370974,18.127718 21.1398288,18.6827649 21.2026091,19.2149233 Z M23.3999185,15.3982605 C22.9090909,15.6099794 22.372605,15.7988098 21.8189971,15.9761959 C21.4936812,14.8546578 21.0656339,13.6873426 20.5348553,12.4914168 C21.0599266,11.3012131 21.4822666,10.1396201 21.8018753,9.02380407 C22.3668977,9.2011902 22.9033836,9.39574273 23.4056258,9.60746166 C25.426009,10.4715038 26.73298,11.6044862 26.73298,12.5028611 C26.7272727,13.401236 25.4203017,14.5399405 23.3999185,15.3982605 Z" id="Shape"></path>
                        <circle id="Oval" cx="14" cy="12" r="3"></circle>
                    </g>
                    <circle id="Oval-2" stroke="#61DAFB" cx="23.5" cy="23.5" r="20.5"></circle>
                    <circle id="Oval-2-Copy" stroke="#61DAFB" cx="23.5" cy="23.5" r="23.5"></circle>
                </g>
            </g>
        </g>
    </g>
</svg>